<?xml version="1.0" standalone="no"?>
<!DOCTYPE svg PUBLIC "-//W3C//DTD SVG 1.1//EN" "http://www.w3.org/Graphics/SVG/1.1/DTD/svg11.dtd" >
<!--
2013-9-30: Created.
-->
<svg>
<metadata>
Created by iconfont
</metadata>
<defs>

<font id="iconfont" horiz-adv-x="1024" >
  <font-face
    font-family="iconfont"
    font-weight="500"
    font-stretch="normal"
    units-per-em="1024"
    ascent="896"
    descent="-128"
  />
    <missing-glyph />
    
    <glyph glyph-name="quanxianguanli" unicode="&#58950;" d="M660.3 446c-3.1-8.2-32.8-59.4-38.9-65.6-7.2-7.2-12.3-69.7-3.1-96.3 5.1-14.3 16.4-43 38.9-67.6l43 61.5c-6.1 8.2-9.2 14.3-11.3 17.4-5.1 9.2-5.1 44.1-5.1 49.2 1 5.1 8.2 17.4 8.2 17.4 28.7 32.8 60.5 111.7 60.5 111.7 56.4 73.8 5.1 116.8 5.1 116.8 2 10.2 6.1 101.5 3.1 122-4.1 20.5-7.2 65.6-55.3 123C656.2 892.9 567 894.9 567 894.9l-36.9 0-36.9 0c0 0-89.2-2-138.4-59.4s-52.3-102.5-55.3-123c-4.1-20.5 1-111.7 3.1-122 0 0-51.2-43 7.2-116.8 0 0 32.8-79.9 60.5-111.7 0 0 7.2-12.3 7.2-17.4 1-5.1 1-40-5.1-49.2-5.1-9.2-34.8-58.4-75.8-63.5-41-4.1-94.3 8.2-124-13.3C143.7 197 40.2 112.9 21.8 42.2c-18.4-70.7-22.5-149.6 46.1-169.1l546.3 0 0 55.3c-42 0-74.8 0-85.1 0-40-1-393.6-1-424.3 6.1-32.8 8.2-20.5 38.9-13.3 82 7.2 43 83 113.8 112.7 133.2 30.7 19.5 38.9 11.3 117.9 22.5C403 184.7 433.8 257.4 443 283c8.2 26.6 4.1 90.2-3.1 96.3-7.2 7.2-36.9 58.4-40 66.6-3.1 8.2-16.4 40-16.4 40-46.1 54.3-21.5 79.9-17.4 83 4.1 3.1 5.1 20.5 4.1 56.4-1 34.8-5.1 53.3 8.2 124s125 87.1 125 87.1l53.3 0c0 0 112.7-16.4 125-87.1 12.3-70.7 9.2-89.2 8.2-124-1-34.8 0-53.3 4.1-56.4 4.1-3.1 28.7-28.7-17.4-83C676.7 486 663.4 454.2 660.3 446zM956.5 160.1l-14.3 0 0 53.3c0 63.5-47.1 113.8-114.8 113.8s-113.8-51.2-113.8-113.8l0-53.3-14.3 0c-31.8 0-57.4-24.6-57.4-55.3l0-167.1c0-30.7 25.6-55.3 57.4-55.3l257.3 0c31.8 0 57.4 24.6 57.4 55.3L1014 104.7C1013.9 135.5 988.2 160.1 956.5 160.1zM748.4 213.4c0 47.1 31.8 84 79.9 84 48.2 0 79.9-35.9 79.9-84l0-53.3L748.4 160.1 748.4 213.4zM972.9-56.2c0-14.3-12.3-25.6-26.6-25.6L709.5-81.8c-14.3 0-26.6 11.3-26.6 25.6L682.9 97.5c0 14.3 12.3 25.6 26.6 25.6l236.8 0c14.3 0 26.6-11.3 26.6-25.6L972.9-56.2zM828.4 75c-13.3 0-23.6-10.2-23.6-22.5 0-8.2 5.1-16.4 12.3-19.5L817.1-5c0-6.1 5.1-11.3 12.3-11.3 6.1 0 12.3 5.1 12.3 11.3L841.7 33c7.2 4.1 12.3 11.3 12.3 19.5C851.9 64.7 841.7 75 828.4 75z"  horiz-adv-x="1024" />

    
    <glyph glyph-name="tubiaoxiazaiguanli" unicode="&#58926;" d="M682.666667 166.4c-8.533333 0-14.933333 2.133333-21.333333 8.533333L441.6 403.2l40.533333 40.533333 170.666667-177.066667L652.8 746.666667l57.6 0 0-552.533333c0-12.8-6.4-21.333333-17.066667-27.733333C689.066667 166.4 686.933333 166.4 682.666667 166.4zM682.666667 166.4c-4.266667 0-6.4 0-10.666667 2.133333-10.666667 4.266667-17.066667 14.933333-17.066667 27.733333L654.933333 746.666667l57.6 0 0-480 170.666667 177.066667 40.533333-40.533333L704 174.933333C697.6 168.533333 691.2 166.4 682.666667 166.4zM994.133333 21.333333 362.666667 21.333333c-14.933333 0-29.866667 12.8-29.866667 29.866667L332.8 264.533333l57.6 0 0-185.6 576 0 0 185.6L1024 264.533333l0-215.466667C1024 34.133333 1011.2 21.333333 994.133333 21.333333z"  horiz-adv-x="1024" />

    
    <glyph glyph-name="kehuguanli" unicode="&#58909;" d="M1013.480727 51.642182 1013.480727 51.642182c0-17.128727-12.916364-29.975273-30.091636-29.975273L747.240727 21.666909c17.152 4.328727 30.021818 21.387636 30.021818 38.562909l0 0 0 0c0 0 0 141.381818-103.005091 197.166545-43.054545 21.364364-47.313455 17.128727-68.701091 21.364364l0 60.066909c0 0-25.809455 17.105455-30.138182 77.125818-17.198545-4.258909-21.434182 17.221818-21.434182 34.257455 0 12.916364-8.610909 55.808 8.564364 51.502545-4.352 29.998545-8.564364 55.691636-4.352 68.584727 4.352 47.150545 51.549091 98.56 124.578909 102.888727 85.899636-4.328727 115.968-55.738182 120.273455-102.888727 0-12.893091 0-38.586182-4.305455-68.584727 17.198545 4.305455 8.564364-38.586182 8.564364-51.502545 0-12.753455-4.282182-38.516364-21.504-29.975273-8.564364-59.997091-30.021818-77.125818-30.021818-77.125818l0-60.020364c0 0 17.128727-8.564364 81.547636-34.327273 64.465455-25.669818 43.031273-8.517818 98.816-34.280727C1013.480727 167.400727 1013.480727 51.642182 1013.480727 51.642182L1013.480727 51.642182 1013.480727 51.642182zM541.090909 261.701818c73.029818-30.021818 47.243636-8.634182 107.380364-38.586182 94.487273-47.150545 94.487273-171.473455 94.487273-171.473455l0 0 0 0c0-17.128727-17.198545-34.304-34.397091-34.304L34.350545 17.338182C17.175273 17.338182 0 34.490182 0 51.642182l0 0 0 0c0 0 0 124.322909 94.487273 171.473455 60.136727 29.952 34.373818 4.282182 107.380364 34.280727 73.006545 29.998545 90.181818 38.562909 90.181818 38.562909l0 68.608c0 0-25.786182 21.364364-34.373818 85.643636-17.175273-4.235636-21.457455 21.527273-21.457455 34.373818-4.328727 21.434182-12.893091 68.584727 4.282182 64.279273-4.282182 29.998545-4.282182 59.973818-4.282182 72.820364 4.282182 55.784727 55.831273 111.476364 133.143273 111.476364 94.440727 0 128.791273-55.691636 137.402182-111.476364 0-17.082182 0-42.821818-4.282182-72.820364 21.504 4.328727 12.869818-42.821818 8.587636-60.043636 0-17.082182-8.587636-38.609455-21.480727-34.280727-8.610909-64.302545-34.350545-85.690182-34.350545-85.690182l0-68.561455C450.909091 300.288 468.084364 291.653818 541.090909 261.701818L541.090909 261.701818zM541.090909 261.701818"  horiz-adv-x="1024" />

    
    <glyph glyph-name="5_1anquanguanli" unicode="&#59194;" d="M512.848 500.112a34.352 34.352 0 0 1-34.352-34.352v-51.648H547.2V465.76a34.352 34.352 0 0 1-34.352 34.352zM851.056 618.864l-16.864 21.104c-62.224 1.072-105.472 28.496-105.472 28.496L590.656 749.92l-21.184 14.512s-18.08 14.048-43.408 18.352l-0.992 0.176-0.576 0.064a81.6 81.6 0 0 1-11.344 0.96C512.768 783.968 512.384 784 512 784l-1.152-0.032a79.232 79.232 0 0 1-11.344-0.96l-0.576-0.064-0.992-0.176a107.024 107.024 0 0 1-43.408-18.352c-0.944-0.656-5.408-4.016-12.208-9.216l-147.04-86.752s-43.216-27.424-105.456-28.496l-16.864-21.104 15.824-161.856c35.616-247.248 165.568-374.416 249.296-432.16a362.272 362.272 0 0 1 49.504-29.84c14.928-7.696 24.768-10.928 24.944-10.992 0 0 8.96 3.296 23.904 11.008a362.592 362.592 0 0 1 49.504 29.84c83.728 57.728 213.696 184.912 249.296 432.16l15.824 161.856zM615.904 283.952c0-15.008-12.144-27.136-27.12-27.136h-153.568a27.12 27.12 0 0 0-27.12 27.136v103.056c0 14.96 12.144 27.088 27.12 27.088h8.944v53.92a68.48 68.48 0 0 0 136.928 0v-53.92h7.696c14.976 0 27.12-12.128 27.12-27.088v-103.056zM512 361.44a18.08 18.08 0 0 1-9.44-33.488 10.048 10.048 0 0 1-0.048-0.992v-25.968a9.152 9.152 0 1 1 18.304 0v25.968l-0.016 0.608A18.096 18.096 0 0 1 512 361.44z"  horiz-adv-x="1024" />

    
    <glyph glyph-name="biaoqianguanli" unicode="&#58894;" d="M655.404 585.144a56.381 56.381 0 1 1 115.39 0 56.381 56.381 0 1 1-115.39 0zM927.695 799.71c-20.143 20.143-47.667 31.003-76.458 29.453L529.18 813.049c-25.044-1.226-48.624-11.692-66.371-29.44L111.34 432.157c-29.89-29.876-46.343-69.724-46.343-112.193s16.452-82.317 46.343-112.18l224.385-224.4c30.933-30.932 71.556-46.398 112.18-46.398 40.651 0 81.274 15.466 112.206 46.399L911.55 334.853c17.72 17.72 28.172 41.257 29.467 66.358l16.086 322.043c1.438 28.452-9.295 56.313-29.41 76.456zM854.59 405.576a14.617 14.617 0 0 0-4.227-9.536L498.924 44.572c-28.143-28.115-73.921-28.086-102.01 0L172.53 268.987c-13.522 13.521-20.988 31.622-20.988 50.976s7.465 37.468 20.988 51.004l351.468 351.454a14.451 14.451 0 0 0 9.494 4.197l322.085 16.114c5.466 0.17 9.24-2.507 10.902-4.212 1.69-1.69 4.48-5.353 4.198-10.93L854.59 405.575z"  horiz-adv-x="1024" />

    
    <glyph glyph-name="xitongguanli-copy" unicode="&#58885;" d="M559.616 893.632c-14.746 1.506-31.864 2.365-49.184 2.365-17.32 0-34.438-0.859-51.317-2.536l-35.435-83.029c-65.316-13.539-122.883-39.986-172.388-76.692l-30.748 72.276c-27.072-18.56-52.352-39.808-75.392-63.232l24.704-87.872c-44.707-55.795-76.203-124.046-88.665-198.74l-64.103 64.788c-11.212-38.836-17.965-83.532-18.609-129.706l76.913-18.646c1.088-43.136 8.64-85.76 22.336-126.72l-53.248-74.112c13.632-29.888 30.080-58.432 49.216-85.184l90.816 9.024c28.544-32.256 61.76-60.16 98.56-82.688l6.784-91.008c29.696-14.144 60.672-25.408 92.48-33.664l63.744 65.28c19.33-3.042 41.622-4.779 64.32-4.779s44.99 1.738 66.75 5.087l61.378-65.588c65.669 17.283 123.133 45.133 173.601 81.991l-74.273 42.681c68.498 42.45 123.144 101.324 159.374 171.275l29.938-97.611c19.136 26.752 35.584 55.296 49.216 85.184l-53.248 74.112c14.040 40.515 22.272 87.215 22.547 135.8l75.181 42.376c-3.794 47.198-13.384 90.906-28.118 132.171l-77.418-12.747c-28.556 71.309-72.944 131.091-129.049 177.116l89.433 22.18c-57.391 58.372-128.565 103.010-208.259 128.652l50.627-104.972c-52.056 28.834-113.441 47.541-178.762 51.836l20.298 75.332zM512 704c176.64 0 320-143.36 320-320s-143.36-320-320-320-320 143.36-320 320 143.36 320 320 320zM512 576c105.984 0 192-86.016 192-192s-86.016-192-192-192-192 86.016-192 192 86.016 192 192 192z"  horiz-adv-x="1024" />

    
    <glyph glyph-name="dian" unicode="&#58948;" d="M512.43367031 383.56632969m-193.31987278 0a193.3198728 193.3198728 0 1 1 386.63974558 0 193.3198728 193.3198728 0 1 1-386.63974558 0Z"  horiz-adv-x="1024" />

    
    <glyph glyph-name="xitongbangzhu" unicode="&#58900;" d="M362.6 485.1c0 60.4 18.7 103.1 56 128 28.4 21.3 61.3 32 98.6 32 39.1 0 72-11.6 98.7-34.6 28.4-21.3 42.7-54.3 42.7-98.6 3.5-35.7-16.9-73.8-61.3-114.7-26.7-23.1-43.6-41.7-50.7-56-7.1-14.3-10.7-36.4-10.7-66.6h-58.6c0 35.5 4.4 62.2 13.3 80 5.3 16 22.2 38.2 50.7 66.7 1.8 1.7 4.4 4.4 8 8 37.4 32 53.3 60.4 48 85.3-5.3 51.5-32.9 78.2-82.7 80-60.5 0-90.6-36.5-90.6-109.3h-61.2l-0.2-0.2z m178.5-335.8h-66.7v69.3h66.7v-69.3z m0 0M510.7-62.7c-246.5 0-446.9 200.4-446.9 446.9 0 246.4 200.5 446.9 446.9 446.9 246.5 0 446.9-200.5 446.9-446.9 0.1-246.5-200.4-446.9-446.9-446.9z m0 849.2c-221.8 0-402.3-180.5-402.3-402.3s180.5-402.3 402.3-402.3C732.5-18 913 162.4 913 384.3c0 221.7-180.5 402.2-402.3 402.2z m0 0"  horiz-adv-x="1024" />

    
    <glyph glyph-name="jiankongguanli" unicode="&#59044;" d="M946.768-77.873c-92.593 68.426-197.735 113.586-309.145 132.983 175.955 53.875 304.285 217.819 304.285 411.181 0 232.265-185.643 423.316-417.842 429.708L499.987 896C267.742 889.608 82.115 698.58 82.115 466.287c0-193.352 128.3-357.308 304.246-411.181-111.399-19.404-216.523-64.575-309.124-132.979-12.355-9.128-14.946-26.514-5.817-38.863 5.259-7.113 13.523-11.265 22.366-11.265 5.956 0 11.716 1.91 16.507 5.447C227.43-36.03 366.268 10.39 511.985 10.39c145.722 0 284.601-46.388 401.732-132.944 12.345-9.121 29.739-6.517 38.871 5.82 9.127 12.332 6.516 29.744-5.82 38.861z m-809.074 544.14c0 206.388 167.897 374.309 374.29 374.309 206.393 0 374.348-167.905 374.348-374.309 0-206.408-167.941-374.348-374.348-374.348s-374.29 167.958-374.29 374.348zM665.231 466.267c0 84.491-68.77 153.188-153.247 153.188-84.463 0-153.124-68.741-153.124-153.188 0-84.448 68.648-153.229 153.124-153.229 84.489 0 153.247 68.735 153.247 153.229z m-250.791 0.02c0 53.796 43.73 97.609 97.544 97.608 53.837-0.001 97.667-43.755 97.667-97.608 0-53.856-43.817-97.643-97.667-97.645-53.837 0-97.544 43.836-97.544 97.645z"  horiz-adv-x="1024" />

    
    <glyph glyph-name="renwuguanli" unicode="&#58901;" d="M764.5 5.5l-563.3 0.1 0.2 756.8 603.3-0.1-0.1-324.8c0-11 9-20 20-20s20 9 20 20l0.1 332.8c0 17.6-14.4 32-32 32l-619.3 0.1c-17.6 0-32-14.4-32-32l-0.2-772.8c0-17.6 14.4-32 32-32l571.3-0.1c11 0 20 9 20 20s-9 20-20 20zM599.9 62.6h1.9c58.2 0.5 113 23.6 154.4 65 41.4 41.5 64.3 96.4 64.6 154.5 0.3 58.3-22.1 112.9-63.1 153.8s-95.7 63.2-154 62.7c-58.2-0.5-113-23.6-154.4-65s-64.3-96.4-64.6-154.5c-0.3-58.3 22.1-112.9 63.1-153.8 40.6-40.5 94.5-62.7 152.1-62.7zM477.6 405.4c35.4 35.4 81.7 53.2 127.9 53.2 45 0 89.9-16.9 123.9-50.9 69-68.8 68.3-181.8-1.7-251.8-33.9-34-78.8-52.9-126.4-53.3h-1.5c-46.9 0-90.9 18.1-123.9 51-68.8 68.8-68.1 181.8 1.7 251.8zM905.1 6.5L797.3 114.1c-7.8 7.8-20.5 7.8-28.3 0s-7.8-20.5 0-28.3l107.9-107.6c3.9-3.9 9-5.8 14.1-5.8s10.3 2 14.2 5.9c7.8 7.7 7.8 20.4-0.1 28.2zM302.2 645.6l405-0.1c11 0 20 9 20 20s-9 20-20 20l-405 0.1c-11 0-20-9-20-20s9-20 20-20zM302.2 550.4l405-0.1c11 0 20 9 20 20s-9 20-20 20l-405 0.1c-11 0-20-9-20-20s9-20 20-20z"  horiz-adv-x="1024" />

    
    <glyph glyph-name="tongjibaobiao" unicode="&#58889;" d="M914.414035 666.049123c-21.557895 28.74386-53.894737 64.673684-86.231579 100.603509-35.929825 32.336842-71.859649 64.673684-100.603509 86.231579-50.301754 35.929825-75.452632 43.115789-89.824561 43.115789H141.922807c-43.115789 0-79.045614-35.929825-79.045614-79.045614V-41.768421c0-43.115789 35.929825-79.045614 79.045614-79.045614h732.968421c43.115789 0 79.045614 35.929825 79.045614 79.045614V576.224561c0 14.37193-3.592982 39.522807-39.522807 89.824562z m-132.940351 53.894737c32.336842-28.74386 53.894737-57.487719 71.859649-82.638597h-154.498245V791.803509c25.150877-17.964912 50.301754-39.522807 82.638596-71.859649z m111.382456-765.305264c0-7.185965-7.185965-14.37193-14.371929-14.371929H141.922807c-7.185965 0-14.37193 7.185965-14.37193 14.371929V813.361404c0 7.185965 7.185965 14.37193 14.37193 14.371929h492.238597V604.968421c0-17.964912 14.37193-32.336842 32.336842-32.336842h222.764912v-617.992983zM170.666667 83.985965h675.480701v-82.638597H170.666667zM659.312281 252.85614h82.638596v-125.754386h-82.638596zM533.557895 421.726316h82.638596v-294.624562h-82.638596zM407.803509 295.97193h82.638596v-168.870176h-82.638596zM282.049123 547.480702h82.638596v-420.378948H282.049123z"  horiz-adv-x="1024" />

    
    <glyph glyph-name="baogaoguanli" unicode="&#58932;" d="M912.8 158.9h-304.5v59.8h304.6l-0.1-59.8z m-291.3 13.2h278.2v33.4h-278.2v-33.4zM882 67.8h-273.7v59.8H882v-59.8zM621.5 81h247.3v33.4h-247.3V81zM922.6 286.2h-349c-13.6 0-25-7.7-31.5-18.5-12.8 5.7-25.7 9.9-36.7 12.8V288c78.2 39 128.4 128.1 128.4 228.7 0 137.1-94 248.6-209.5 248.6S214.8 653.8 214.8 516.7C214.8 416.1 265 327 343.1 288v-13.3c-0.7-0.2-1.3-0.4-2-0.6-4.7-1.3-9.4-2.6-14-4.6l-196.4-85.9c-40.5-17.5-66.7-57.4-66.7-101.5v-48.5c0-17 13.8-30.8 30.8-30.8H922.6c20.6 0 37.4 16.8 37.4 37.4V248.9c0 20.5-16.8 37.3-37.4 37.3z m-827.8-267c-7.9 0-14.3 6.4-14.3 14.3V82c0 37.6 22.3 71.5 56.8 86.4l196.4 85.9c3.8 1.7 7.8 2.7 11.8 3.8 2.8 0.8 5.7 1.6 8.5 2.5l5.6 1.9V298.3l-4.8 2.2c-75.1 34.9-123.6 119.7-123.6 216 0 128 86.6 232.1 193 232.1s193-104.1 193-232.1c0-96.3-48.5-181.1-123.6-216l-4.8-2.2v-30.7l6.2-1.7c11.7-3 27-7.4 41.8-14.2-0.1-1.1-0.6-2-0.6-3.1v-208.8c0-7.9 3-14.8 7.2-20.9H94.8v0.3z m848.7 229.4v-208.5c0-11.5-9.4-20.9-20.9-20.9H573.6c-11.5 0-20.9 9.4-20.9 20.9V247.5c0 5.3 2.1 9.9 5.2 13.7l-0.5 0.2c0.4 0.5 1 0.8 1.5 1.2 0.5 0.5 1.1 0.9 1.6 1.4 1.7 1.5 3.4 2.8 5.6 3.7 0.7 0.3 1.4 0.3 2.1 0.5 1.8 0.5 3.5 1.4 5.5 1.4h349c11.5 0 20.9-9.4 20.9-20.9l-0.1-0.1z"  horiz-adv-x="1024" />

    
    <glyph glyph-name="xiaoshouguanli" unicode="&#59166;" d="M806.4 763.733333h-597.333333c-46.933333 0-85.333333-38.4-85.333334-85.333333v-597.333333c0-46.933333 38.4-85.333333 85.333334-85.333334h597.333333c46.933333 0 85.333333 38.4 85.333333 85.333334v597.333333c0 46.933333-38.4 85.333333-85.333333 85.333333z m0-682.666666h-597.333333v597.333333h597.333333v-597.333333zM294.4 465.066667h85.333333v-298.666667h-85.333333zM465.066667 593.066667h85.333333v-426.666667h-85.333333zM635.733333 337.066667h85.333334v-170.666667h-85.333334z"  horiz-adv-x="1024" />

    
    <glyph glyph-name="wangzhanguanli" unicode="&#58899;" d="M539.648 278.016H275.968c-13.824 0-25.088 11.264-25.088 25.088V604.16c0 13.824 11.264 25.088 25.088 25.088h551.936c13.824 0 25.088-11.264 25.088-25.088v-230.912c18.944-12.8 35.84-28.16 50.176-46.08v276.48c0 41.472-33.792 75.264-75.264 75.264H275.968c-41.472 0-75.264-33.792-75.264-75.264v-301.056c0-41.472 33.792-75.264 75.264-75.264h250.88c2.56 17.408 7.168 34.304 13.824 50.176l-1.024 0.512zM844.8 211.456l38.4 24.576-14.336 35.328-44.544-10.752c-6.144 8.704-13.312 16.384-21.504 23.04l10.24 44.544-35.328 14.336-24.064-38.4c-10.752 1.536-22.016 1.536-32.768 0l-24.576 39.424-35.328-14.336 9.728-44.032c-9.216-6.656-16.896-14.336-23.552-23.04l-45.056 9.728-14.336-35.328 37.888-24.576c-1.536-10.752-1.536-22.016 0-32.768l-38.4-23.552 14.336-35.328 44.032 9.728c6.656-8.704 14.336-16.384 23.04-23.04l-10.752-44.032 35.328-14.336 24.576 37.888c10.752-1.536 22.016-1.536 32.768 0l24.576-38.4 35.328 14.336-7.68 44.544c8.704 6.656 16.384 14.336 23.04 23.04l44.544-10.24 14.336 35.328-38.4 24.064c1.536 10.752 1.536 22.016 0 32.768l-1.536-0.512z m-41.984-43.008c-14.848-35.84-56.32-52.736-91.648-37.888-35.84 14.848-52.736 56.32-37.888 91.648 14.848 35.84 56.32 52.736 91.648 37.888 35.84-14.848 52.736-55.808 37.888-91.648z m-276.48 8.704H375.808c-13.824 0-25.088-11.264-25.088-25.088s11.264-25.088 25.088-25.088h158.72c-5.632 16.384-9.216 33.28-10.752 50.176h2.56zM593.408 436.736c1.536 0 1.536 0 0 0z m1.536-1.536c-1.536 0 0 0 0 0z m-45.056 153.6c-68.096 0-122.368-54.272-122.368-122.368s54.272-122.368 122.368-122.368 122.368 54.272 122.368 122.368S617.984 588.8 549.888 588.8z m78.336-47.104c-3.584 0-7.168 0-10.24-1.536-1.536-1.536-3.584-3.584-5.12-3.584h-5.12c-5.12-1.536-5.12-13.824-12.288-12.288-3.584 0-5.12 5.12-7.168 7.168-1.536 1.536-3.584 3.584-1.536 7.168h-1.536c1.536 1.536 5.12 1.536 5.12 3.584 1.536 3.584-5.12 3.584-7.168 3.584 1.536 1.536 3.584 0 5.12 0s-1.536 3.584-1.536 3.584-7.168-1.536-3.584 1.536c-5.12 3.584-10.24 7.168-13.824 10.24-1.536-3.584 5.12-7.168 8.704-7.168 0-1.536-3.584-3.584-5.12-3.584s0 3.584-3.584 3.584c-1.536-5.12 3.584-3.584 5.12-5.12 0-3.584-1.536-1.536-3.584-1.536 0 0-1.536 1.536-1.536 0s3.584-1.536 3.584-3.584c-5.12 0-7.168 1.536-8.704 3.584-3.584 1.536-5.12 1.536-10.24 1.536 1.536 0 3.584 1.536 3.584 1.536l3.584 3.584c0 1.536 0 1.536-1.536 3.584s-3.584 3.584-7.168 5.12c-7.168 0-1.536-8.704-8.704-8.704h-5.12s0-3.584-1.536-3.584c0-1.536-1.536-3.584-3.584-3.584-1.536-1.536-5.12-3.584-5.12-5.12-3.584-7.168 7.168-8.704 10.24-10.24 1.536 0 7.168-1.536 8.704-3.584 1.536-1.536-1.536-3.584 1.536-5.12h3.584c1.536 1.536 0 1.536 0 3.584 0 3.584 0 1.536 1.536 3.584 1.536 3.584 1.536 3.584 0 7.168 0 1.536-1.536 7.168 0 8.704 1.536 1.536 7.168-1.536 8.704-1.536 1.536 0 3.584-3.584 5.12-3.584 0-1.536 1.536-3.584 1.536-3.584 1.536 0 1.536 1.536 1.536 3.584 3.584 1.536 3.584 0 5.12-3.584 1.536-3.584 1.536-3.584 5.12-5.12 1.536 0 5.12-3.584 5.12-5.12s-5.12-3.584-7.168-3.584c-3.584-3.584-13.824 0-13.824-7.168 1.536 0 7.168 5.12 8.704 3.584v-3.584c1.536-3.584 3.584-1.536 5.12-1.536 3.584 1.536 3.584 1.536 3.584 3.584l1.536 3.584c1.536 1.536 3.584 0 3.584-1.536 0 0 3.584-5.12 1.536-5.12-3.584 0-8.704 0-10.24-1.536-1.536 0-3.584-1.536-5.12-3.584h-3.584c0 1.536 3.584 1.536 3.584 3.584-3.584 1.536-5.12-1.536-7.168-3.584-1.536 0-3.584-1.536-5.12-3.584 0 0-1.536-1.536-3.584-1.536 0-1.536-1.536-1.536-1.536-3.584 0 0-1.536 0-1.536-1.536v-3.584c0-1.536-3.584-3.584-5.12-3.584 0-1.536-1.536-1.536-1.536-3.584s1.536-7.168 1.536-8.704c-1.536-3.584-5.12 1.536-5.12 3.584-3.584 5.12-10.24 1.536-15.872 1.536s-10.24-8.704-7.168-13.824c1.536-3.584 3.584-5.12 7.168-3.584 3.584 0 5.12 5.12 7.168 5.12 5.12 0 0-5.12 0-7.168 0-1.536 0-1.536 1.536-1.536h5.12s0-3.584 1.536-1.536c-1.536-1.536-1.536-5.12 0-7.168 1.536-1.536 5.12 0 7.168 0 5.12-1.536 1.536 0 7.168 3.584 3.584 1.536 3.584 0 5.12 0 1.536 0 1.536 1.536 3.584 1.536 1.536 0 1.536-1.536 5.12-1.536h1.536c3.584-5.12 7.168-7.168 10.24-8.704 1.536-1.536 3.584-1.536 7.168-1.536 1.536 0 5.12-3.584 5.12-7.168l-1.536-3.584h5.12l-3.584-1.536 1.536-1.536c1.536 3.584 3.584 1.536 5.12 0s5.12-1.536 7.168-1.536c1.536 0 7.168-1.536 7.168-3.584 1.536-1.536 0-5.12 0-7.168-1.536-1.536-3.584-3.584-5.12-7.168v-7.168c0-3.584-1.536-1.536-3.584-5.12-1.536-1.536 0-1.536-3.584-3.584-3.584-1.536-5.12 0-7.168-3.584 0-1.536-1.536-3.584-1.536-3.584-1.536-1.536-1.536-3.584-3.584-5.12l-5.12-7.168h-5.12c0-1.536 0 0 1.536-1.536-1.536-5.12-3.584-7.168-8.704-7.168 0-3.584-1.536-1.536-3.584-3.584 0 0-1.536-3.584-1.536-5.12l-1.536-3.584s0-1.536 1.536-1.536c-3.584 0-8.704-1.536-12.288-1.536 0 1.536 1.536 1.536-1.536 1.536 0 1.536 1.536 3.584 3.584 5.12v0.512c1.536 3.584 0 1.536 0 3.584-1.536 5.12 0 7.168 1.536 10.24 1.536 5.12 1.536 10.24 1.536 15.872 0 1.536 1.536 7.168 0 10.24-1.536 3.584-5.12 5.12-7.168 7.168-3.584 1.536-3.584 5.12-7.168 8.704-1.536 1.536-1.536 3.584-3.584 5.12-1.536 3.584 0 1.536 0 3.584V435.2c3.584 5.12 5.12 7.168 7.168 8.704 0 1.536 0 5.12-1.536 5.12-1.536 1.536-3.584 0-5.12 0-1.536 0-3.584 1.536-5.12 3.584-1.536 1.536-1.536 3.584-3.584 5.12h-5.12c-1.536 0-3.584 3.584-5.12 3.584-1.536 1.536-3.584 0-5.12 0-1.536 1.536-5.12 3.584-7.168 3.584-3.584 1.536-7.168 3.584-8.704 8.704 0 3.584-3.584 5.12-5.12 7.168-1.536 3.584-3.584 5.12-7.168 7.168l1.536-3.584c1.536-1.536 3.584-5.12 5.12-7.168 1.536-3.584 1.536-3.584-1.536 0s-5.12 7.168-8.704 10.24c-1.536 1.536 0 1.536-1.536 3.584-1.536 1.536-3.584 1.536-5.12 3.584-3.584 5.12-5.12 10.24-5.12 17.408 1.536 1.536 1.536 3.584 1.536 5.12s-1.536 3.584-3.584 5.12l-1.536 1.536c0 1.536-1.536 3.584-3.584 5.12l-5.12 5.12c12.288 13.824 26.112 26.112 43.52 33.28 0 0 0-1.536 1.536-1.536 0-3.584 1.536-3.584 3.584-5.12 0-3.584-3.584-3.584-7.168-3.584s-7.168 1.536-8.704-1.536c1.536 0 5.12-3.584 5.12 0h8.704c1.536 0 5.12-1.536 5.12 0 0 0 1.536 1.536 1.536 3.584h-1.536c1.536 1.536 3.584 0 7.168 0-3.584-1.536-1.536-5.12 0-3.584 1.536 1.536 0 5.12-3.584 5.12 3.584 3.584 5.12 3.584 7.168 0 0 1.536 1.536 1.536 3.584 1.536h-3.584c1.536 3.584 0 3.584 3.584 5.12 1.536 0 8.704 0 10.24 1.536-3.584 1.536-8.704 1.536-12.288-1.536-1.536 0-3.584-3.584-5.12-1.536-1.536 1.536 0 5.12 1.536 7.168 7.168 0 15.872 1.536 22.528 1.536 5.12 0 10.24 0 13.824-1.536-1.536 0 0 0-1.536-1.536s-5.12-3.584-8.704-3.584c3.584 0 12.288-3.584 13.824 1.536h-3.584c1.536 1.536 5.12 1.536 7.168 3.584 23.552-5.12 42.496-15.872 58.368-31.232z m19.456-44.032c1.536 1.536 1.536 1.536 1.536 3.584 0 0 1.536 0 1.536 1.536 1.536-5.12 3.584-10.24 3.584-15.872h-1.536c-1.536 0-1.536 0-3.584 1.536-1.536 0-1.536 1.536-1.536 3.584v5.632z m1.536-55.808c-1.536 1.536-5.12 3.584-5.12 7.168-1.536 1.536 0 5.12 0 8.704 0 1.536-1.536 5.12 0 8.704-1.536 0 0 0 0 0 1.536 1.536 0 3.584 1.536 5.12 1.536 1.536 3.584 1.536 3.584 3.584 1.536 1.536 1.536 1.536 1.536 3.584 0 1.536 1.536 3.584 3.584 3.584 0-5.12 1.536-10.24 1.536-15.872 0-10.24-1.536-19.456-3.584-28.16l-3.072 3.584z"  horiz-adv-x="1102" />

    
    <glyph glyph-name="yuyinguanli" unicode="&#58911;" d="M511.558 242.396c94.543 0 171.075 76.547 171.075 171.101V659.916c0 94.554-76.532 171.098-171.075 171.098-94.547 0-171.083-76.544-171.083-171.098v-246.418c2.249-94.554 76.536-171.102 171.083-171.102z m242.554 215.485v-55.878c0-133.712-108.395-242.11-242.11-242.11s-242.114 108.399-242.114 242.11v55.878h-74.496v-55.878c0-155.77 112.491-285.257 260.665-311.674v-79.913H343.586c-20.278 0-36.715-16.437-36.715-36.715 0-20.278 16.437-36.715 36.715-36.715h299.539c20.274 0 36.711 16.437 36.711 36.715 0 20.278-16.437 36.715-36.711 36.715H530.65v75.546c166.174 9.654 297.958 147.443 297.958 316.041v55.878h-74.496z"  horiz-adv-x="1024" />

    
    <glyph glyph-name="shenheguanli" unicode="&#58947;" d="M903.5 56.60000000000002c-62.3 61.2-92.3 93.4-90 96.6 12.8 17.6 23.5 36.5 32 56.7 14.9 35.4 22.6 73 22.6 111.7s-7.6 76.3-22.6 111.7c-14.4 34.1-35.2 64.9-61.5 91.2s-57.1 47-91.2 61.5c-35.4 14.9-73 22.6-111.7 22.6S504.8 601 469.4 586c-34.1-14.4-64.9-35.2-91.2-61.5-26.3-26.3-47-57.1-61.5-91.2-14.9-35.4-22.6-73-22.6-111.7s7.6-76.3 22.6-111.7c14.4-34.1 35.2-64.9 61.5-91.2 26.3-26.3 57.1-47 91.2-61.5 35.4-14.9 73-22.6 111.7-22.6s76.3 7.6 111.7 22.6c17.9 7.6 34.7 16.8 50.5 27.7 4.6 3.2 35.8-26.4 93.7-88.7 17.3-18.6 46.4-19.9 65.2-2.8 17.8 16.1 19.1 43.6 2.9 61.4-0.4 0.6-1 1.2-1.6 1.8zM379.2 321.9c0 111.1 90.5 201.6 201.7 201.6s201.7-90.4 201.7-201.6-90.5-201.6-201.7-201.6-201.7 90.5-201.7 201.6zM832.7 796.2c28.7 0 51.9-23.2 51.9-51.9v-114.5c0-27.1-16-49.1-43.1-49.1s-43.1 30-43.1 57.1V669c0 16.4-13.3 29.6-29.6 29.6H234.6c-16.4 0-29.6-13.3-29.6-29.6v-583.5c0-16.4 13.3-29.6 29.6-29.6h107c27.5 0 49.8-15.3 49.8-42.8 0-27.5-22.3-46.8-49.8-46.8H165.8c-32.7 0-59.3 26.5-59.3 59.3V736.9c0 32.7 26.5 59.3 59.3 59.3h666.9z"  horiz-adv-x="1024" />

    
    <glyph glyph-name="luyouguanli" unicode="&#58895;" d="M935.724138-128H88.275862a70.62069 70.62069 0 0 0-70.62069 70.62069V507.586207a70.62069 70.62069 0 0 0 70.62069 70.62069h70.62069V860.689655a35.310345 35.310345 0 0 0 70.620689 0v-282.482758h141.24138V860.689655a35.310345 35.310345 0 0 0 70.620689 0v-282.482758h141.24138V860.689655a35.310345 35.310345 0 0 0 70.620689 0v-282.482758h282.482759a70.62069 70.62069 0 0 0 70.62069-70.62069v-564.965517a70.62069 70.62069 0 0 0-70.62069-70.62069z m0 564.965517a70.62069 70.62069 0 0 1-70.62069 70.62069H158.896552a70.62069 70.62069 0 0 1-70.62069-70.62069v-423.724138a70.62069 70.62069 0 0 1 70.62069-70.620689h706.206896a70.62069 70.62069 0 0 1 70.62069 70.620689V436.965517z m-141.241379-353.103448h-141.24138a35.310345 35.310345 0 0 0 0 70.62069h141.24138a35.310345 35.310345 0 0 0 0-70.62069z m-158.896552 247.172414a52.965517 52.965517 0 1 0 0.03531 105.966345A52.965517 52.965517 0 0 0 635.586207 331.034483z m-211.862069 0a52.965517 52.965517 0 1 0 0.03531 105.966345A52.965517 52.965517 0 0 0 423.724138 331.034483z m-211.862069 0a52.965517 52.965517 0 1 0 0.03531 105.966345A52.965517 52.965517 0 0 0 211.862069 331.034483z"  horiz-adv-x="1024" />

    
    <glyph glyph-name="renwu" unicode="&#59000;" d="M611.84 451.84c12.8 14.08 33.28 15.36 47.36 2.56s15.36-34.56 2.56-49.92L476.16 194.56c-6.4-7.68-15.36-11.52-24.32-11.52s-19.2 3.84-24.32 11.52l-90.88 104.96c-12.8 14.08-11.52 37.12 2.56 49.92s35.84 11.52 47.36-2.56l65.28-75.52 160 180.48z m21.76 258.56H363.52v-69.12h270.08v69.12zM195.84 46.08h608V675.84h-101.12v-34.56c0-38.4-29.44-70.4-67.84-70.4H364.8c-37.12 0-67.84 32-67.84 70.4v34.56h-101.12v-629.76z m606.72 700.16c37.12 0 67.84-30.72 67.84-69.12v-629.76c0-38.4-30.72-69.12-67.84-69.12H195.84c-37.12 0-67.84 30.72-67.84 69.12V675.84c0 38.4 30.72 69.12 66.56 69.12h111.36c11.52 20.48 33.28 34.56 57.6 34.56h270.08c24.32 0 46.08-14.08 57.6-34.56h111.36z m0 0"  horiz-adv-x="1024" />

    
    <glyph glyph-name="caiwuguanli" unicode="&#58916;" d="M511.744 896C228.992 896 0 666.368 0 383.616 0 100.992 228.992-128 511.744-128 795.008-128 1024 100.992 1024 383.616 1024 666.368 795.008 896 511.744 896z m160.512-429.056c34.816 0 53.376-18.432 53.376-53.376 0-34.048-18.944-52.736-53.376-52.736h-104.704v-43.648h104.704c34.432 0 53.376-19.072 53.376-53.376 0-34.048-18.944-52.736-53.376-52.736h-104.704v-84.48c0-23.168-3.456-38.528-10.624-47.232-7.808-9.088-22.016-13.44-45.056-13.44-19.584 0-33.536 4.096-42.752 12.544-9.344 8.96-13.952 24.576-13.952 48.128v84.48h-103.04c-34.432 0-53.504 18.816-53.504 52.736 0 34.432 18.432 53.376 51.968 53.376h104.576v43.648h-103.04c-34.432 0-53.504 18.816-53.504 52.736 0 34.432 18.432 53.376 51.968 53.376h48.128c-29.952 49.024-59.904 97.792-89.856 146.688-9.728 15.872-13.184 30.336-10.24 43.264 2.944 12.8 10.624 23.808 23.04 32.256 14.208 9.728 28.032 13.824 40.192 11.776 13.184-1.92 24.96-11.904 36.096-30.464l114.56-191.36c12.288 20.864 24.576 41.856 36.992 62.592l15.104 25.6c19.968 33.536 39.68 67.072 59.52 100.608 4.736 8.448 10.88 16.256 17.792 23.04 6.528 5.888 13.312 9.216 20.224 10.368 7.424 0.896 14.336-0.128 20.992-3.2 5.632-2.56 11.52-5.76 17.792-9.6 16-10.368 24.32-21.248 25.6-33.28 1.28-11.264-2.816-25.216-12.288-41.728l-88.576-146.816h46.592z"  horiz-adv-x="1024" />

    
    <glyph glyph-name="haomaguanli" unicode="&#58982;" d="M977.3056 499.712c-3.4816 12.9024-16.1792 20.8896-29.2864 18.432-5.9392-1.024-11.0592-1.6384-15.7696-1.6384-47.9232 0-87.04 39.1168-87.04 87.04 0 21.7088 8.3968 42.8032 23.552 59.1872 9.0112 9.8304 9.216 24.7808 0.2048 34.6112-65.9456 72.4992-150.7328 122.4704-245.5552 144.7936-12.4928 2.8672-25.1904-3.6864-29.696-15.7696-13.1072-33.792-44.8512-55.7056-80.896-55.7056S445.0304 792.576 431.9232 826.368c-4.7104 11.8784-17.408 18.6368-29.696 15.7696-96.4608-22.7328-182.272-73.9328-248.6272-148.2752-8.6016-9.6256-8.6016-23.9616-0.2048-33.792 9.8304-11.4688 21.504-30.5152 21.504-56.5248 0-47.9232-39.1168-87.04-87.04-87.04-2.4576 0-5.3248 0.4096-8.6016 0.8192l-2.8672 0.4096c-12.6976 1.6384-24.7808-6.3488-28.0576-18.6368-11.264-41.984-16.9984-84.1728-16.9984-125.5424 0-47.5136 6.9632-94.6176 20.8896-140.288 3.8912-12.4928 16.5888-20.2752 29.4912-17.6128 5.7344 1.2288 11.264 1.6384 16.384 1.6384 47.9232 0 87.04-39.1168 87.04-87.04 0-25.3952-11.264-44.2368-20.6848-55.5008-0.2048-0.2048-0.2048-0.4096-0.4096-0.6144-0.4096-0.4096-0.8192-1.024-1.2288-1.4336-0.2048-0.2048-0.2048-0.4096-0.4096-0.6144-0.4096-0.4096-0.6144-1.024-0.8192-1.4336-0.2048-0.4096-0.2048-0.6144-0.4096-1.024l-0.6144-1.2288c-0.2048-0.4096-0.2048-0.8192-0.4096-1.2288-0.2048-0.4096-0.2048-0.8192-0.4096-1.024-0.2048-0.4096-0.2048-0.8192-0.4096-1.4336 0-0.4096-0.2048-0.6144-0.2048-1.024s-0.2048-1.024-0.2048-1.4336c0-0.4096-0.2048-0.6144-0.2048-1.024v-5.12c0-0.4096 0-0.8192 0.2048-1.024 0-0.4096 0.2048-0.8192 0.2048-1.4336 0-0.4096 0.2048-0.6144 0.2048-1.024 0.2048-0.4096 0.2048-1.024 0.4096-1.4336 0-0.4096 0.2048-0.6144 0.4096-1.024s0.2048-1.024 0.4096-1.4336c0.2048-0.4096 0.2048-0.6144 0.4096-1.024l0.6144-1.2288 0.6144-1.2288c0.2048-0.4096 0.4096-0.6144 0.6144-1.024 0.4096-0.4096 0.6144-1.024 1.024-1.4336 0.2048-0.2048 0.2048-0.4096 0.4096-0.6144 0.4096-0.4096 0.8192-1.024 1.2288-1.4336 0.2048-0.2048 0.2048-0.4096 0.4096-0.4096 64.3072-66.9696 145.8176-113.664 235.7248-134.9632 2.048-0.4096 3.8912-0.6144 5.9392-0.6144 10.8544 0 20.8896 6.9632 24.3712 17.6128 11.8784 36.0448 44.8512 60.2112 82.3296 60.2112 37.2736 0 70.2464-24.1664 82.1248-60.0064 4.096-12.6976 17.408-19.8656 30.3104-16.7936 35.0208 8.3968 69.0176 20.8896 101.1712 36.864 12.6976 6.3488 17.8176 21.7088 11.4688 34.4064-6.3488 12.6976-21.7088 17.8176-34.4064 11.4688-22.3232-11.0592-45.6704-20.2752-69.632-27.4432C611.5328 5.3248 565.248 33.792 514.048 33.792c-51.4048 0-97.6896-28.4672-121.4464-73.1136-65.536 19.0464-125.5424 53.4528-175.3088 100.5568 12.4928 21.0944 18.8416 44.4416 18.8416 69.0176 0 76.1856-62.0544 138.24-138.24 138.24h-2.4576c-8.6016 34.4064-13.1072 69.8368-13.1072 105.2672 0 30.3104 3.4816 61.0304 10.24 91.9552 73.9328 2.4576 133.5296 63.488 133.5296 138.24 0 24.9856-7.168 49.5616-20.2752 71.0656C258.2528 728.4736 322.7648 766.976 394.4448 787.456c24.576-41.7792 69.0176-67.584 118.5792-67.584 49.5616 0 94.0032 26.0096 118.5792 67.584 69.8368-20.0704 133.12-57.1392 184.9344-108.7488-14.5408-22.3232-22.3232-48.128-22.3232-74.752 0-76.1856 62.0544-138.24 138.24-138.24h0.8192c6.7584-30.72 10.24-61.6448 10.24-91.7504 0-36.0448-4.5056-71.68-13.312-106.496-1.8432 0-3.6864 0.2048-5.5296 0.2048-76.1856 0-138.24-62.0544-138.24-138.24 0-32.768 12.0832-64.7168 33.9968-90.112 5.12-5.9392 12.288-8.8064 19.456-8.8064 5.9392 0 11.8784 2.048 16.7936 6.144 10.6496 9.216 11.8784 25.3952 2.6624 36.0448-9.8304 11.264-21.504 30.3104-21.504 56.5248 0 47.9232 39.1168 87.04 87.04 87.04 5.9392 0 12.0832-0.8192 18.6368-2.2528 13.1072-2.8672 26.0096 4.7104 30.1056 17.408 14.1312 46.08 21.504 93.7984 21.504 142.336-0.6144 41.3696-6.3488 83.7632-17.8176 125.952zM542.3104 133.9392V610.9184h-37.4784c-10.24-20.48-27.4432-41.7792-51.8144-63.488-24.3712-21.9136-52.8384-40.3456-85.6064-55.7056V435.2c18.2272 6.7584 38.5024 16.7936 61.44 30.1056 22.7328 13.312 41.1648 26.8288 55.296 40.1408v-371.5072h58.1632z"  horiz-adv-x="1024" />

    
    <glyph glyph-name="tongdaoguanli" unicode="&#58921;" d="M476.48 484.90666667H265.6c-9.81333333 0-17.6 7.78666667-17.6 17.6s7.78666667 17.6 17.6 17.6h210.88c9.81333333 0 17.6-7.78666667 17.6-17.6 0-9.92-7.68-17.6-17.6-17.6zM406.18666667 379.41333333H265.6c-9.81333333 0-17.6 7.68-17.6 17.6 0 9.81333333 7.78666667 17.6 17.6 17.6h140.58666667c9.81333333 0 17.6-7.78666667 17.6-17.6s-7.68-17.6-17.6-17.6zM406.18666667 274.02666667000005H265.6c-9.81333333 0-17.6 7.78666667-17.6 17.6s7.78666667 17.6 17.6 17.6h140.58666667c9.81333333 0 17.6-7.78666667 17.6-17.6 0-9.92-7.68-17.6-17.6-17.6zM476.48 168.53333333H265.6c-9.81333333 0-17.6 7.78666667-17.6 17.6S255.78666667 203.73333333000005 265.6 203.73333333000005h210.88c9.81333333 0 17.6-7.78666667 17.6-17.6 0-9.92-7.68-17.6-17.6-17.6zM810.45333333 748.48H494.08c-29.22666667 0-52.69333333-23.57333333-52.69333333-52.69333333v-52.69333334H212.90666667c-29.22666667 0-52.69333333-23.57333333-52.69333334-52.69333333v-492.16c0-29.22666667 23.57333333-52.69333333 52.69333334-52.69333333H634.66666667c29.22666667 0 52.69333333 23.57333333 52.69333333 52.69333333v52.69333333c0 9.81333333-7.68 17.6-17.6 17.6-9.81333333 0-17.6-7.78666667-17.6-17.6v-52.69333333c0-9.81333333-7.68-17.6-17.6-17.6H212.90666667c-9.81333333 0-17.6 7.68-17.6 17.6V590.29333333c0 9.81333333 7.78666667 17.6 17.6 17.6H634.66666667c9.81333333 0 17.6-7.78666667 17.6-17.6V537.6c0-9.81333333 7.78666667-17.6 17.6-17.6s17.6 7.68 17.6 17.6v52.69333333c0 29.22666667-23.57333333 52.69333333-52.69333334 52.69333334H476.48v52.69333333c0 9.81333333 7.68 17.6 17.6 17.6h316.37333333c9.81333333 0 17.6-7.78666667 17.6-17.6V537.6c0-9.81333333 7.78666667-17.6 17.6-17.6s17.6 7.68 17.6 17.6V695.7866666699999c-0.10666667 29.22666667-23.57333333 52.69333333-52.8 52.69333333zM845.97333333 308.37333333000004l-18.66666666 13.01333334c-16.21333333 11.2-16.21333333 34.77333333 0 46.08l18.66666666 13.01333333c24.64 17.17333333 8.74666667 55.89333333-21.12 50.66666667l-22.18666666-3.84c-19.30666667-3.52-36.16 13.33333333-32.64 32.64l3.84 22.18666666c5.22666667 29.54666667-33.38666667 45.65333333-50.66666667 21.12l-13.01333333-18.66666666c-11.2-16.21333333-34.77333333-16.21333333-46.08 0l-13.01333334 18.66666666c-17.17333333 24.64-55.89333333 8.74666667-50.66666666-21.12l3.84-22.18666666c3.52-19.30666667-13.33333333-36.16-32.64-32.64l-22.18666667 3.84c-29.54666667 5.22666667-45.65333333-33.38666667-21.12-50.66666667l18.66666667-13.01333333c16.21333333-11.2 16.21333333-34.77333333 0-46.08l-18.66666667-13.01333334c-24.64-17.17333333-8.74666667-55.89333333 21.12-50.66666666l22.18666667 3.84c19.30666667 3.52 36.16-13.33333333 32.64-32.64l-3.84-22.18666667c-5.22666667-29.54666667 33.38666667-45.65333333 50.66666666-21.12l13.01333334 18.66666667c11.2 16.21333333 34.77333333 16.21333333 46.08 0L723.2 185.60000000000002c17.17333333-24.64 55.89333333-8.74666667 50.66666667 21.12l-3.84 22.18666667c-3.52 19.30666667 13.33333333 36.16 32.64 32.64l22.18666666-3.84c29.86666667-5.54666667 46.08 33.49333333 21.12 50.66666666z m-158.50666666-43.2c-43.62666667 0-79.04 35.52-79.04 79.04 0 43.62666667 35.52 79.04 79.04 79.04 43.62666667 0 79.04-35.52 79.04-79.04s-35.52-79.04-79.04-79.04z"  horiz-adv-x="1024" />

    


  </font>
</defs>
</svg>
